<svg width="284" height="284" viewBox="0 0 284 284" fill="none" xmlns="http://www.w3.org/2000/svg">
<g clip-path="url(#clip0_142_185)" filter="url(#filter0_d_142_185)">
<path d="M215.312 0H68.6875C32.9616 0 4 28.9616 4 64.6875V211.312C4 247.038 32.9616 276 68.6875 276H215.312C251.038 276 280 247.038 280 211.312V64.6875C280 28.9616 251.038 0 215.312 0Z" fill="url(#paint0_radial_142_185)"/>
<path d="M215.312 0H68.6875C32.9616 0 4 28.9616 4 64.6875V211.312C4 247.038 32.9616 276 68.6875 276H215.312C251.038 276 280 247.038 280 211.312V64.6875C280 28.9616 251.038 0 215.312 0Z" fill="url(#paint1_radial_142_185)"/>
<path d="M142.01 30.1875C112.73 30.1875 109.055 30.3158 97.5554 30.8387C86.0777 31.3648 78.2429 33.1815 71.3882 35.8477C64.2963 38.6012 58.2814 42.2851 52.2892 48.2795C46.2916 54.2728 42.6077 60.2877 39.8455 67.3763C37.1718 74.2332 35.353 82.0712 34.8365 93.5435C34.3223 105.044 34.1875 108.72 34.1875 138.001C34.1875 167.282 34.3169 170.945 34.8387 182.445C35.367 193.922 37.1836 201.757 39.8477 208.612C42.6033 215.704 46.2873 221.719 52.2817 227.711C58.2728 233.708 64.2877 237.401 71.3742 240.154C78.2343 242.821 86.0701 244.637 97.5457 245.163C109.046 245.686 112.718 245.815 141.997 245.815C171.28 245.815 174.943 245.686 186.442 245.163C197.92 244.637 205.764 242.821 212.624 240.154C219.712 237.401 225.719 233.708 231.709 227.711C237.706 221.719 241.389 215.704 244.152 208.615C246.802 201.757 248.622 193.92 249.161 182.447C249.678 170.947 249.812 167.282 249.812 138.001C249.812 108.72 249.678 105.046 249.161 93.5457C248.622 82.0679 246.802 74.2343 244.152 67.3796C241.389 60.2877 237.706 54.2728 231.709 48.2795C225.712 42.283 219.714 38.599 212.617 35.8487C205.744 33.1815 197.905 31.3637 186.427 30.8387C174.927 30.3158 171.266 30.1875 141.976 30.1875H142.01ZM132.338 49.6164C135.209 49.6121 138.412 49.6164 142.01 49.6164C170.797 49.6164 174.208 49.7199 185.576 50.2363C196.087 50.7172 201.793 52.4734 205.593 53.9494C210.625 55.9029 214.212 58.2392 217.983 62.0137C221.756 65.7872 224.092 69.3806 226.051 74.4122C227.527 78.2072 229.285 83.9126 229.764 94.4243C230.28 105.79 230.392 109.203 230.392 137.976C230.392 166.749 230.28 170.164 229.764 181.528C229.283 192.04 227.527 197.745 226.051 201.541C224.097 206.573 221.756 210.156 217.983 213.927C214.21 217.7 210.627 220.036 205.593 221.99C201.797 223.473 196.087 225.225 185.576 225.705C174.21 226.222 170.797 226.334 142.01 226.334C113.222 226.334 109.809 226.222 98.4448 225.705C87.9331 225.22 82.2277 223.464 78.424 221.988C73.3935 220.033 69.799 217.698 66.0256 213.925C62.2522 210.151 59.917 206.567 57.958 201.533C56.482 197.737 54.7236 192.031 54.2449 181.52C53.7285 170.154 53.625 166.741 53.625 137.949C53.625 109.158 53.7285 105.763 54.2449 94.3974C54.7258 83.8857 56.482 78.1802 57.958 74.3798C59.9126 69.3482 62.2522 65.7548 66.0267 61.9814C69.8012 58.208 73.3935 55.8717 78.4251 53.9138C82.2255 52.4314 87.9331 50.6794 98.4448 50.1964C108.391 49.7468 112.245 49.6121 132.338 49.5894V49.6164ZM199.56 67.5176C192.417 67.5176 186.623 73.3071 186.623 80.4508C186.623 87.5933 192.417 93.3883 199.56 93.3883C206.703 93.3883 212.498 87.5933 212.498 80.4508C212.498 73.3082 206.703 67.5133 199.56 67.5133V67.5176ZM142.01 82.634C111.434 82.634 86.6437 107.424 86.6437 138.001C86.6437 168.578 111.434 193.356 142.01 193.356C172.586 193.356 197.368 168.578 197.368 138.001C197.368 107.425 172.584 82.634 142.008 82.634H142.01ZM142.01 102.063C161.857 102.063 177.948 118.152 177.948 138.001C177.948 157.848 161.857 173.939 142.01 173.939C122.163 173.939 106.073 157.848 106.073 138.001C106.073 118.152 122.161 102.063 142.01 102.063Z" fill="white"/>
</g>
<defs>
<filter id="filter0_d_142_185" x="0" y="0" width="284" height="284" filterUnits="userSpaceOnUse" color-interpolation-filters="sRGB">
<feFlood flood-opacity="0" result="BackgroundImageFix"/>
<feColorMatrix in="SourceAlpha" type="matrix" values="0 0 0 0 0 0 0 0 0 0 0 0 0 0 0 0 0 0 127 0" result="hardAlpha"/>
<feOffset dy="4"/>
<feGaussianBlur stdDeviation="2"/>
<feComposite in2="hardAlpha" operator="out"/>
<feColorMatrix type="matrix" values="0 0 0 0 0 0 0 0 0 0 0 0 0 0 0 0 0 0 0.5 0"/>
<feBlend mode="normal" in2="BackgroundImageFix" result="effect1_dropShadow_142_185"/>
<feBlend mode="normal" in="SourceGraphic" in2="effect1_dropShadow_142_185" result="shape"/>
</filter>
<radialGradient id="paint0_radial_142_185" cx="0" cy="0" r="1" gradientUnits="userSpaceOnUse" gradientTransform="translate(77.3125 297.257) rotate(-90) scale(273.536 254.411)">
<stop stop-color="#FFDD55"/>
<stop offset="0.1" stop-color="#FFDD55"/>
<stop offset="0.5" stop-color="#FF543E"/>
<stop offset="1" stop-color="#C837AB"/>
</radialGradient>
<radialGradient id="paint1_radial_142_185" cx="0" cy="0" r="1" gradientUnits="userSpaceOnUse" gradientTransform="translate(-42.2311 19.8817) rotate(78.681) scale(122.272 504.01)">
<stop stop-color="#3771C8"/>
<stop offset="0.128" stop-color="#3771C8"/>
<stop offset="1" stop-color="#6600FF" stop-opacity="0"/>
</radialGradient>
<clipPath id="clip0_142_185">
<rect width="276" height="276" fill="white" transform="translate(4)"/>
</clipPath>
</defs>
</svg>
